<svg width="35" height="35" viewBox="0 0 35 35" fill="none" xmlns="http://www.w3.org/2000/svg">
<path fill-rule="evenodd" clip-rule="evenodd" d="M7.10647 5.79871L9.71149 8.40373C11.5858 6.7976 13.9638 5.75988 16.5753 5.56029V1.8763C12.9495 2.08745 9.65601 3.5323 7.10647 5.79871ZM18.4247 1.8763V5.56029C21.0362 5.75988 23.4142 6.7976 25.2885 8.40373L27.8935 5.79871C25.344 3.5323 22.0505 2.08745 18.4247 1.8763ZM29.2013 7.10647L26.5963 9.71149C28.2024 11.5858 29.2401 13.9638 29.4397 16.5753H33.1237C32.9126 12.9495 31.4677 9.65601 29.2013 7.10647ZM33.1237 18.4247H29.4397C29.2401 21.0362 28.2024 23.4142 26.5963 25.2885L29.2013 27.8935C31.4677 25.344 32.9126 22.0505 33.1237 18.4247ZM27.8935 29.2013L25.2885 26.5963C23.4142 28.2024 21.0362 29.2401 18.4247 29.4397V33.1237C22.0505 32.9126 25.344 31.4677 27.8935 29.2013ZM16.5753 33.1237V29.4397C13.9638 29.2401 11.5858 28.2024 9.71149 26.5963L7.10647 29.2013C9.65601 31.4677 12.9495 32.9126 16.5753 33.1237ZM5.79871 27.8935L8.40373 25.2885C6.7976 23.4142 5.75988 21.0362 5.56029 18.4247H1.8763C2.08745 22.0505 3.5323 25.344 5.79871 27.8935ZM1.8763 16.5753H5.56029C5.75988 13.9638 6.7976 11.5858 8.40373 9.71149L5.79871 7.10647C3.5323 9.65601 2.08745 12.9495 1.8763 16.5753ZM5.12563 5.12563C8.2915 1.95977 12.6678 0 17.5 0C22.3322 0 26.7085 1.95977 29.8744 5.12563C33.0402 8.2915 35 12.6678 35 17.5C35 22.3322 33.0402 26.7085 29.8744 29.8744C26.7085 33.0402 22.3322 35 17.5 35C12.6678 35 8.2915 33.0402 5.12563 29.8744C1.95977 26.7085 0 22.3322 0 17.5C0 12.6678 1.95977 8.2915 5.12563 5.12563ZM17.5 7.37454C14.7037 7.37454 12.1736 8.50686 10.3402 10.3402C8.50686 12.1736 7.37454 14.7037 7.37454 17.5C7.37454 20.2963 8.50686 22.8264 10.3402 24.6598C12.1736 26.4931 14.7037 27.6255 17.5 27.6255C20.2963 27.6255 22.8264 26.4931 24.6598 24.6598C26.4931 22.8264 27.6255 20.2963 27.6255 17.5C27.6255 14.7037 26.4931 12.1736 24.6598 10.3402C22.8264 8.50686 20.2963 7.37454 17.5 7.37454ZM16.2147 11.0215V14.9673H14.3652V14.1328C13.463 14.9731 12.8996 16.1713 12.8996 17.5C12.8996 18.8287 13.463 20.0269 14.3652 20.8672V20.0327H16.2147V23.9785L14.9197 23.4127C12.6437 22.4183 11.0502 20.1463 11.0502 17.5C11.0502 14.8537 12.6437 12.5817 14.9197 11.5873L16.2147 11.0215ZM18.7853 11.0215L20.0803 11.5873C22.3563 12.5817 23.9498 14.8537 23.9498 17.5C23.9498 20.1463 22.3563 22.4183 20.0803 23.4127L18.7853 23.9785L18.7853 20.0327H20.6348V20.8672C21.537 20.0269 22.1004 18.8287 22.1004 17.5C22.1004 16.1713 21.537 14.9731 20.6348 14.1328V14.9673H18.7853V11.0215Z" fill="#C6876D"/>
</svg>
