<svg width="19" height="18" viewBox="0 0 19 18" fill="none" xmlns="http://www.w3.org/2000/svg">
<path fill-rule="evenodd" clip-rule="evenodd" d="M8.74961 17.426C8.84244 17.5004 8.91601 17.558 8.9671 17.5975L9.49898 17.9965L10.0309 17.5975C10.0819 17.558 10.1555 17.5004 10.2483 17.426C10.4339 17.2773 10.697 17.0608 11.0116 16.7861C11.6399 16.2375 12.4794 15.4522 13.3213 14.506C14.9701 12.6529 16.773 10.024 16.773 7.274C16.773 3.25668 13.5163 0 9.49898 0C5.48166 0 2.22498 3.25668 2.22498 7.274C2.22498 10.024 4.0278 12.6529 5.67667 14.506C6.51854 15.4522 7.35808 16.2375 7.98633 16.7861C8.30099 17.0608 8.564 17.2773 8.74961 17.426ZM9.49898 1.5C6.31008 1.5 3.72498 4.08511 3.72498 7.274C3.72498 9.43188 5.18415 11.696 6.79728 13.5089C7.58641 14.3958 8.37787 15.1367 8.97287 15.6561C9.17389 15.8317 9.35186 15.9814 9.49897 16.1023C9.64609 15.9814 9.82406 15.8317 10.0251 15.6561C10.6201 15.1367 11.4115 14.3958 12.2007 13.5089C13.8138 11.696 15.273 9.43188 15.273 7.274C15.273 4.08511 12.6879 1.5 9.49898 1.5Z" fill="white"/>
<path fill-rule="evenodd" clip-rule="evenodd" d="M9.49894 4.762C8.1116 4.762 6.98694 5.88666 6.98694 7.274C6.98694 8.66134 8.1116 9.786 9.49894 9.786C10.8863 9.786 12.0109 8.66134 12.0109 7.274C12.0109 5.88666 10.8863 4.762 9.49894 4.762ZM5.48694 7.274C5.48694 5.05823 7.28317 3.262 9.49894 3.262C11.7147 3.262 13.5109 5.05823 13.5109 7.274C13.5109 9.48976 11.7147 11.286 9.49894 11.286C7.28317 11.286 5.48694 9.48976 5.48694 7.274Z" fill="white"/>
</svg>
